<svg id="Layer_1" data-name="Layer 1" xmlns="http://www.w3.org/2000/svg" viewBox="0 0 444.86 502.02"><defs><style>.cls-1{fill:#fff;}</style></defs><title>pointer</title><path class="cls-1" d="M90,183.89l-52-127s25-74,78-28l40,70,46-20,21,10,6,16s32-29,54-20l22,9,29,62,38.84-15S454,159.52,464,386.71L229,486.89l-179-138s-41-75,63-78l16,1-11-28Z" transform="translate(-28.58 0)"/><path d="M444.5,210.54l-17.68-40.21c-1-2.34-2.17-4.66-3.39-6.88a59.74,59.74,0,0,0-76.23-26l-8.41,3.66-15.82-36a48.93,48.93,0,0,0-64.68-25L234.36,90.51A41,41,0,0,0,219,76.33c-11.87-6.14-26.24-5.59-42.71,1.65l-17.78,7.82L136.88,36.57C128.6,17.72,113.24,4.79,94.76,1.09c-17.35-3.47-35,1.43-47.23,13.1A59.17,59.17,0,0,0,34,81.44l80.67,184.65c-24.24-5.9-52.42-1.22-68.77,13.38a10,10,0,0,0-1.86,1.5c-10.81,11.13-16.14,24.58-15.42,38.89.91,18,11.27,35.82,29.94,51.52l.25.2,163,128.29a10,10,0,0,0,10.21,1.3L465.55,398.52a10,10,0,0,0,6-8.53l1.27-20.35A343.81,343.81,0,0,0,444.5,210.54Zm8.32,157.86-.89,14.27L229.49,480.45,71.34,356c-14.24-12-22.1-24.84-22.72-37.12-.41-8,2.35-15.51,8.21-22.23a10.12,10.12,0,0,0,1.09-1c14.6-15,51-16.12,69.87-2.18l40.57,39A10,10,0,0,0,182.21,318L142.57,280,52.34,73.42c-8.26-18.79-.77-35.44,9-44.76,7.4-7.07,18.71-10.11,29.51-8,12.18,2.43,22,10.93,27.74,23.92l68.24,155.23a10,10,0,0,0,18.31-8l-38.55-87.7,17.78-7.82c10.66-4.69,19.23-5.43,25.46-2.2,4.43,2.29,8.12,6.75,11,13.25h0L261,198.88a10,10,0,0,0,18.31-8l-36.2-82.34,23.15-10,.11-.05a28.93,28.93,0,0,1,38.25,14.8L352.49,222a10,10,0,0,0,18.31-8l-24-54.49,8.34-3.63a39.51,39.51,0,0,1,50.71,17.21c.94,1.72,1.82,3.51,2.62,5.33l17.68,40.21A323.75,323.75,0,0,1,452.82,368.4Z" transform="translate(-28.58 0)"/><path d="M405.59,366.78,394,371.86a10,10,0,1,0,8,18.32l11.6-5.08a10,10,0,1,0-8-18.32Z" transform="translate(-28.58 0)"/><path d="M358.82,387.55,235,441.86a10,10,0,1,0,8,18.32l123.83-54.31a10,10,0,1,0-8-18.32Z" transform="translate(-28.58 0)"/></svg>